<?xml version="1.0" encoding="utf-8"?>
<!-- Generator: Adobe Illustrator 17.0.0, SVG Export Plug-In . SVG Version: 6.00 Build 0)  -->
<!DOCTYPE svg PUBLIC "-//W3C//DTD SVG 1.1//EN" "http://www.w3.org/Graphics/SVG/1.1/DTD/svg11.dtd">
<svg version="1.1" id="Layer_1" xmlns:sketch="http://www.bohemiancoding.com/sketch/ns"
	 xmlns="http://www.w3.org/2000/svg" xmlns:xlink="http://www.w3.org/1999/xlink" x="0px" y="0px" width="20px" height="20px"
	 viewBox="0 0 20 20" enable-background="new 0 0 20 20" xml:space="preserve">
<title>ic_account_circle_black_24px</title>
<desc>Created with Sketch.</desc>
<path id="Shape" fill="#6B6B6B" d="M10,0C4.48,0,0,4.48,0,10s4.48,10,10,10s10-4.48,10-10S15.52,0,10,0L10,0z M10,3
	c1.66,0,3,1.34,3,3s-1.34,3-3,3S7,7.66,7,6S8.34,3,10,3L10,3z M10,17.2c-2.5,0-4.71-1.28-6-3.22c0.03-1.99,4-3.08,6-3.08
	c1.99,0,5.97,1.09,6,3.08C14.71,15.92,12.5,17.2,10,17.2L10,17.2z"/>
</svg>
