<?xml version="1.0" encoding="utf-8"?>
<!-- Generator: Adobe Illustrator 17.0.0, SVG Export Plug-In . SVG Version: 6.00 Build 0)  -->
<!DOCTYPE svg PUBLIC "-//W3C//DTD SVG 1.1//EN" "http://www.w3.org/Graphics/SVG/1.1/DTD/svg11.dtd">
<svg version="1.1" id="Layer_1" xmlns="http://www.w3.org/2000/svg" xmlns:xlink="http://www.w3.org/1999/xlink" x="0px" y="0px"
	 width="32px" height="32px" viewBox="0 0 32 32" enable-background="new 0 0 32 32" xml:space="preserve">
<path fill="#DFDFDF" d="M12.13,0h4.37c1.37,1.82,3.3,3.51,3.43,5.95c0.73,4.44-1.96,8.29-4.15,11.87c2.68,0.81,5.37,1.62,8.05,2.44
	c0.09,1.15,0.18,2.29,0.26,3.44c-8.1,0.18-15.9,3.49-24.09,2.18V24c3.21-3.47,7.75-5.04,12.18-6.27C9.81,14,7.08,9.8,8.21,5.15
	C8.4,2.78,10.35,1.27,12.13,0z"/>
<path fill="#DFDFDF" d="M21.31,27.88c3.33-2.97,5.95-6.94,10.27-8.58c-2.08,4.95-6.3,8.67-10.55,11.75c-2.18-0.9-3.56-2.97-5.2-4.57
	C17.88,25.58,19.64,26.87,21.31,27.88z"/>
</svg>
