<?xml version="1.0" encoding="utf-8"?>
<!-- Generator: Adobe Illustrator 17.0.0, SVG Export Plug-In . SVG Version: 6.00 Build 0)  -->
<!DOCTYPE svg PUBLIC "-//W3C//DTD SVG 1.1//EN" "http://www.w3.org/Graphics/SVG/1.1/DTD/svg11.dtd">
<svg version="1.1" id="Layer_1" xmlns="http://www.w3.org/2000/svg" xmlns:xlink="http://www.w3.org/1999/xlink" x="0px" y="0px"
	 width="24px" height="24px" viewBox="0 0 24 24" enable-background="new 0 0 24 24" xml:space="preserve">
<path d="M7.58,4.08L6.15,2.65C3.75,4.48,2.17,7.3,2.03,10.5h2C4.18,7.85,5.54,5.53,7.58,4.08z M19.97,10.5h2
	c-0.15-3.2-1.73-6.02-4.12-7.85l-1.42,1.43C18.45,5.53,19.82,7.85,19.97,10.5z M18,11c0-3.07-1.64-5.64-4.5-6.32V4
	c0-0.83-0.67-1.5-1.5-1.5S10.5,3.17,10.5,4v0.68C7.63,5.36,6,7.92,6,11v5l-2,2v1h16v-1l-2-2V11z M12,22c0.14,0,0.27-0.01,0.4-0.04
	c0.65-0.14,1.18-0.58,1.44-1.18c0.1-0.24,0.15-0.5,0.15-0.78h-4C10,21.1,10.89,22,12,22z"/>
</svg>
