<?xml version="1.0" encoding="utf-8"?>
<!-- Generator: Adobe Illustrator 17.0.0, SVG Export Plug-In . SVG Version: 6.00 Build 0)  -->
<!DOCTYPE svg PUBLIC "-//W3C//DTD SVG 1.1//EN" "http://www.w3.org/Graphics/SVG/1.1/DTD/svg11.dtd">
<svg version="1.1" id="Layer_1" xmlns:sketch="http://www.bohemiancoding.com/sketch/ns"
	 xmlns="http://www.w3.org/2000/svg" xmlns:xlink="http://www.w3.org/1999/xlink" x="0px" y="0px" width="18px" height="18px"
	 viewBox="0 0 18 18" enable-background="new 0 0 18 18" xml:space="preserve">
<title>Shape</title>
<desc>Created with Sketch.</desc>
<g id="Page-1" sketch:type="MSPage">
	
		<g id="_x30_2.1_x5F_VNC_x5F_CloudMail-Redesign_x5F_Basic" transform="translate(-27.000000, -86.000000)" sketch:type="MSArtboardGroup">
		<g id="Side-Nav" transform="translate(-1.000000, 63.000000)" sketch:type="MSLayerGroup">
			<g id="Navigation" transform="translate(25.000000, 21.000000)" sketch:type="MSShapeGroup">
				<g id="ic_inbox_white_24px-2">
					<path id="Shape" fill="#022A43" d="M19,2H4.99c-1.1,0-1.98,0.9-1.98,2L3,18c0,1.1,0.89,2,1.99,2H19c1.1,0,2-0.9,2-2V4
						C21,2.9,20.1,2,19,2L19,2z M19,14h-4c0,1.66-1.34,3-3,3s-3-1.34-3-3H4.99V4H19V14L19,14z M16,9h-2V6h-4v3H8l4,4L16,9L16,9z"/>
				</g>
			</g>
		</g>
	</g>
</g>
</svg>
