<?xml version="1.0" encoding="utf-8"?>
<!-- Generator: Adobe Illustrator 17.0.0, SVG Export Plug-In . SVG Version: 6.00 Build 0)  -->
<!DOCTYPE svg PUBLIC "-//W3C//DTD SVG 1.1//EN" "http://www.w3.org/Graphics/SVG/1.1/DTD/svg11.dtd">
<svg version="1.1" id="Layer_1" xmlns:sketch="http://www.bohemiancoding.com/sketch/ns"
	 xmlns="http://www.w3.org/2000/svg" xmlns:xlink="http://www.w3.org/1999/xlink" x="0px" y="0px" width="18px" height="18px"
	 viewBox="0 0 18 18" enable-background="new 0 0 18 18" xml:space="preserve">
<title>Shape</title>
<desc>Created with Sketch.</desc>
<path id="Shape" fill="#6B6B6B" d="M17.54,2.23l-1.39-1.68C15.88,0.21,15.47,0,15,0H3C2.53,0,2.12,0.21,1.84,0.55L0.46,2.23
	C0.17,2.57,0,3.02,0,3.5V16c0,1.1,0.9,2,2,2h14c1.1,0,2-0.9,2-2V3.5C18,3.02,17.83,2.57,17.54,2.23z M14,6.007L12.993,5L9,8.993
	L5.007,5L4,6.007L7.993,10L4,13.993L5.007,15L9,11.007L12.993,15L14,13.993L10.007,10L14,6.007z M2.12,2l0.81-1h12l0.94,1H2.12
	L2.12,2z"/>
</svg>
